<svg width="18" height="16" viewBox="0 0 18 16" fill="none" xmlns="http://www.w3.org/2000/svg">
<path d="M5.28634 0C4.22907 0 3.3304 0.713656 3.03965 1.69163H0.634361C0.264317 1.69163 0 1.98238 0 2.35242C0 2.72247 0.290749 3.01322 0.660793 3.01322H3.06608C3.3304 3.99119 4.25551 4.70485 5.31278 4.70485C6.39648 4.70485 7.29515 3.99119 7.5859 3.01322H17.3392C17.7093 3.01322 18 2.72247 18 2.35242C18 1.98238 17.7093 1.69163 17.3392 1.69163H7.5859C7.26872 0.713656 6.37004 0 5.28634 0ZM5.31278 1.32159C5.86784 1.32159 6.34361 1.77093 6.34361 2.35242C6.34361 2.93392 5.86784 3.38326 5.31278 3.38326C4.75771 3.38326 4.28194 2.93392 4.28194 2.35242C4.28194 1.77093 4.75771 1.32159 5.31278 1.32159Z" fill="#6D6E70"/>
<path d="M13.2423 5.28622C12.185 5.28622 11.2863 5.99988 10.9956 6.97785H0.660793C0.264317 6.97785 0 7.2686 0 7.63865C0 8.00869 0.290749 8.29944 0.660793 8.29944H10.9956C11.2599 9.27741 12.185 9.99107 13.2423 9.99107C14.326 9.99107 15.2247 9.27741 15.5154 8.29944H17.3392C17.7093 8.29944 18 8.00869 18 7.63865C18 7.2686 17.7093 6.97785 17.3392 6.97785H15.5154C15.2247 5.99988 14.326 5.28622 13.2423 5.28622ZM13.2687 6.60781C13.8238 6.60781 14.2996 7.05715 14.2996 7.63865C14.2996 8.22015 13.8238 8.66949 13.2687 8.66949C12.7137 8.66949 12.2379 8.22015 12.2379 7.63865C12.2379 7.05715 12.6872 6.60781 13.2687 6.60781Z" fill="#6D6E70"/>
<path d="M8.45815 11.1014C7.40088 11.1014 6.5022 11.815 6.21145 12.793H0.660793C0.264317 12.793 0 13.0838 0 13.4538C0 13.8238 0.290749 14.1146 0.660793 14.1146H6.23788C6.5022 15.0926 7.42731 15.8062 8.48458 15.8062C9.56828 15.8062 10.467 15.0926 10.7577 14.1146H17.3392C17.7093 14.1146 18 13.8238 18 13.4538C18 13.0838 17.7093 12.793 17.3392 12.793H10.7313C10.4405 11.815 9.54185 11.1014 8.45815 11.1014ZM8.48458 12.423C9.03965 12.423 9.51542 12.8723 9.51542 13.4538C9.51542 14.0353 9.03965 14.4846 8.48458 14.4846C7.92952 14.4846 7.45374 14.0353 7.45374 13.4538C7.48018 12.8723 7.92952 12.423 8.48458 12.423Z" fill="#6D6E70"/>
</svg>
