<svg width="19" height="20" viewBox="0 0 19 20" fill="none" xmlns="http://www.w3.org/2000/svg">
<path d="M3.9849 7.77467C3.84398 9.82946 4.45642 11.6796 5.7418 13.2559L5.74251 13.2567C5.78143 13.304 5.80037 13.3347 5.80912 13.3536C5.81018 13.3558 5.81101 13.3578 5.81167 13.3594C5.81037 13.3618 5.80858 13.3648 5.80614 13.3685C5.79319 13.3881 5.76822 13.4178 5.72178 13.4609C4.86888 14.2239 4.01989 14.9918 3.16992 15.7605C2.77823 16.1148 2.38633 16.4692 1.99374 16.8235C1.92783 16.8815 1.86096 16.9396 1.7936 16.998C1.53508 17.2224 1.26934 17.453 1.02327 17.713L1.02326 17.713L1.02111 17.7153C0.788338 17.9676 0.709867 18.297 0.768802 18.5871C0.827927 18.8781 1.03169 19.1443 1.36441 19.2237C1.75649 19.3199 2.05825 19.1398 2.29227 18.925C2.92313 18.352 3.55628 17.7798 4.18937 17.2077C5.11478 16.3715 6.04008 15.5353 6.95797 14.6967C7.05843 14.6078 7.10729 14.5925 7.13 14.5901C7.14704 14.5882 7.19137 14.589 7.29543 14.6595C8.19213 15.2777 9.18535 15.6577 10.254 15.7876L10.2545 15.7877C12.5919 16.0665 14.6269 15.3053 16.2451 13.5459L16.2453 13.5456C18.0211 11.6097 18.6508 9.25832 18.0888 6.59626L18.0888 6.59616C17.3562 3.13274 14.3318 0.739064 11.136 0.755338C9.61279 0.677249 7.79215 1.46785 6.7118 2.38077C5.05768 3.76135 4.13501 5.58389 3.9849 7.77467ZM3.9849 7.77467L4.23431 7.79178M3.9849 7.77467C3.9849 7.77468 3.9849 7.77468 3.9849 7.77469L4.23431 7.79178M4.23431 7.79178C4.09785 9.78156 4.68919 11.5695 5.93555 13.0979L6.87259 2.57221C5.27143 3.90834 4.37987 5.66742 4.23431 7.79178ZM5.70338 8.23465C5.71213 5.12837 8.1787 2.52659 11.1264 2.57225V2.57228H11.1302C14.1358 2.57228 16.5744 5.12829 16.5571 8.35722C16.5306 11.5584 14.1285 14.0581 11.1044 14.0398H11.1044C8.00288 14.0215 5.69461 11.4411 5.70338 8.23465ZM5.70338 8.23465L5.45338 8.23395L5.70338 8.23465Z" fill="#6D6E70" stroke="#6D6E70" stroke-width="0.5"/>
</svg>
